<?xml version="1.0" encoding="utf-8"?>
<!-- Generator: Adobe Illustrator 19.2.1, SVG Export Plug-In . SVG Version: 6.00 Build 0)  -->
<svg version="1.1" id="layer" xmlns="http://www.w3.org/2000/svg" xmlns:xlink="http://www.w3.org/1999/xlink" x="0px" y="0px"
	 viewBox="0 0 652 652" style="enable-background:new 0 0 652 652;" xml:space="preserve">
<style type="text/css">
	.st0{fill:#0770E3;}
</style>
<path class="st0" d="M87,356.1c1.4,0,2.7-0.3,4-1.1l14.4-8.3c2.9-1.6,6.3-2.4,9.6-2c17.5,2,29.8,5.3,33.4,6.4c0.7,0.2,1.6-0.1,2-0.7
	c0.6-0.7,1.3-1.9,1.9-3.6c0.5-1.6,0.6-3,0.5-4c-0.1-0.8-0.6-1.5-1.4-1.7c-5.7-1.6-30.8-8.4-64.6-8.4s-58.9,6.8-64.6,8.4
	c-0.8,0.2-1.3,0.9-1.4,1.7c-0.1,0.9,0,2.3,0.5,4c0.5,1.7,1.3,2.9,1.9,3.6c0.5,0.6,1.3,0.9,2,0.7c3.6-1.1,16-4.4,33.4-6.4
	c3.4-0.4,6.7,0.3,9.6,2L83,355C84.2,355.8,85.6,356.1,87,356.1z M62.9,309.3c0.8,1.4,2,2.3,3.5,2.7c1.5,0.4,3,0.2,4.4-0.6
	c1.4-0.8,2.3-2,2.7-3.5s0.2-3-0.6-4.4l-13-22.5c-0.4-0.7-1.3-1-2-0.9c-1.1,0.1-2.5,0.6-4.2,1.6c-1.7,1-2.9,2-3.5,2.8
	c-0.5,0.7-0.6,1.5-0.2,2.2C49.9,286.9,62.9,309.3,62.9,309.3z M51,325.4c1.4,0.8,3,0.9,4.4,0.6c1.5-0.4,2.7-1.3,3.5-2.7
	c0.8-1.4,0.9-3,0.6-4.4c-0.3-1.4-1.3-2.7-2.7-3.5l-22.5-13c-0.7-0.4-1.6-0.3-2.2,0.2c-0.9,0.6-1.8,1.8-2.8,3.5
	c-1,1.7-1.5,3.2-1.6,4.2c-0.1,0.9,0.3,1.6,0.9,2L51,325.4z M92.7,301.4c0,1.6-0.7,3-1.6,4.1c-1.1,1.1-2.4,1.6-4.1,1.6
	c-1.6,0-3-0.7-4.1-1.6c-1.1-1.1-1.6-2.4-1.6-4.1v-25.9c0-0.9,0.5-1.5,1.3-1.8c0.9-0.5,2.4-0.7,4.4-0.7c2,0,3.5,0.3,4.4,0.7
	c0.7,0.4,1.3,1,1.3,1.8V301.4z M111,309.3c-0.8,1.4-2,2.3-3.5,2.7c-1.5,0.4-3,0.2-4.4-0.6c-1.4-0.8-2.3-2-2.7-3.5
	c-0.4-1.5-0.2-3,0.6-4.4l13-22.5c0.4-0.7,1.3-1,2-0.9c1.1,0.1,2.5,0.6,4.2,1.6c1.7,1,2.9,2,3.5,2.8c0.5,0.7,0.6,1.5,0.2,2.2
	L111,309.3L111,309.3z M122.9,325.4c-1.4,0.8-3,0.9-4.4,0.6c-1.5-0.4-2.7-1.3-3.5-2.7s-0.9-3-0.6-4.4c0.4-1.5,1.3-2.7,2.7-3.5
	l22.5-13c0.7-0.4,1.6-0.3,2.2,0.2c0.9,0.6,1.8,1.8,2.8,3.5s1.5,3.2,1.6,4.2c0.1,0.9-0.3,1.6-0.9,2L122.9,325.4z M266.3,307.6h10.8
	c0.4,0,0.7,0.3,0.9,0.6l10.7,27.6l10.4-27.6c0.1-0.4,0.5-0.6,0.9-0.6h10.6c0.7,0,1.2,0.7,0.9,1.3l-26.4,60.5
	c-0.1,0.3-0.5,0.6-0.9,0.6H275c-0.7,0-1.2-0.7-0.9-1.3l9-21.2l-17.7-38.6C265.1,308.3,265.6,307.6,266.3,307.6L266.3,307.6z
	 M426,313.7v-5.1c0-0.5,0.5-1,1-1h9.6c0.5,0,1,0.5,1,1v41.1c0,0.5-0.5,1-1,1H427c-0.5,0-1-0.5-1-1v-5.4c-2,3.2-6.5,7.3-13.8,7.3
	c-14,0-21.2-10.7-21.2-22.6c0-15.6,10.8-22.2,20.9-22.2C418.5,306.6,423.1,309.8,426,313.7z M402.4,329c0,7.4,4.6,13.1,11.9,13.1
	s12-4.9,12-12.5s-4.6-13.4-12.3-13.4C406.7,316.1,402.4,321.8,402.4,329z M446.2,349.6v-41.1c0-0.5,0.5-1,1-1h9.6c0.5,0,1,0.5,1,1
	v5.6c2.2-3.9,6.5-7.5,13.7-7.5c7.4,0,15.6,3.6,15.6,20.3v22.6c0,0.5-0.5,1-1,1h-9.6c-0.5,0-1-0.5-1-1v-22.4c0-4-1-10.9-8.1-10.9
	c-7.1,0-9.6,6.3-9.6,12.1v21.3c0,0.5-0.5,1-1,1h-9.6C446.6,350.6,446.2,350.2,446.2,349.6L446.2,349.6z M495.2,349.6v-41.1
	c0-0.5,0.5-1,1-1h9.6c0.5,0,1,0.5,1,1v5.6c2.2-3.9,6.5-7.5,13.7-7.5c7.4,0,15.6,3.6,15.6,20.3v22.6c0,0.5-0.5,1-1,1h-9.6
	c-0.5,0-1-0.5-1-1v-22.4c0-4-1-10.9-8.1-10.9s-9.6,6.3-9.6,12.1v21.3c0,0.5-0.5,1-1,1h-9.6C495.6,350.6,495.2,350.2,495.2,349.6
	L495.2,349.6z M595.6,307.6h9.3c0.5,0,1,0.5,1,1v8.5c1.8-8.4,9.1-11.3,14.4-10.1c0.5,0.1,0.7,0.5,0.7,0.9v9.4c0,0.6-0.5,1.1-1.2,0.9
	c-9.8-1.9-13.7,3.4-13.7,10.7v20.7c0,0.5-0.5,1-1,1h-9.6c-0.5,0-1-0.5-1-1v-41.1C594.6,308,595.1,307.6,595.6,307.6L595.6,307.6z
	 M203,316.9c-3-1-4.6-1.6-6.9-2.4c-2.4-0.9-6.6-3.2-6.6-7.1c0-3.8,2.6-6.3,8-6.3c4.9,0,7.6,2.4,9.4,6.2c0.3,0.5,0.9,0.7,1.4,0.5
	l7.8-4.6c0.4-0.3,0.6-0.8,0.4-1.3c-2.4-5.2-7.9-11.5-18.9-11.5c-12.2,0-19.8,7.3-19.8,16.8c0,9.5,6.3,14.4,14.8,17.3
	c3.1,1.1,4.4,1.5,7,2.4c5,1.7,7.3,4,7.3,7.1c0,3.1-2,6.8-9.8,6.8c-7.1,0-9.6-3.8-11.1-7.3c-0.2-0.5-0.9-0.8-1.4-0.5l-8.2,4.7
	c-0.4,0.3-0.6,0.7-0.4,1.2c3.2,7.8,11.8,12.4,21.5,12.4c11.4,0,21-5.8,21-17.5S205.9,317.9,203,316.9z M265.9,339.4
	c-0.3-0.5-0.9-0.7-1.4-0.3c-3.7,2.7-8,2.8-11.3-2.3c-2.8-4.3-6.1-9.6-6.1-9.6l14.5-18c0.5-0.7,0.1-1.6-0.7-1.6h-11.3
	c-0.3,0-0.6,0.1-0.8,0.4l-12.5,17.2v-34.6c0-0.5-0.5-1-1-1h-9.6c-0.5,0-1,0.5-1,1v59.1c0,0.5,0.5,1,1,1h9.6c0.5,0,1-0.5,1-1v-19.2
	c0,0,6.4,10.1,8.8,13.8c3.3,5.1,7.9,7.3,12.9,7.3c4.7,0,7.8-1.3,11.4-4.8c0.3-0.3,0.4-0.8,0.2-1.2L265.9,339.4L265.9,339.4z
	 M334.6,325.8c-3-1.1-4.1-1.5-6.4-2.4c-2.3-0.9-4.4-2.1-4.4-4s1.7-3.9,5.2-3.9c3,0,4.9,1.2,5.9,3.3c0.3,0.5,0.9,0.7,1.3,0.4l6.7-3.9
	c0.5-0.3,0.6-0.9,0.3-1.3c-1.8-3.2-5.5-7.3-14.2-7.3c-10.7,0-16.3,6.2-16.3,13.1s5.6,10.1,10.7,12.1c5.8,2.4,6.2,2.5,6.9,2.8
	c1.8,0.7,4,1.8,4,3.9s-2.4,3.9-6,3.9c-3.4,0-7.2-1.4-8.8-5.3c-0.2-0.5-0.9-0.8-1.4-0.5l-6.8,3.9c-0.4,0.3-0.6,0.7-0.4,1.2
	c2,5.1,7.8,9.7,17.3,9.7c10.3,0,17.1-5.5,17.1-13.2C345.6,330.6,340.3,327.9,334.6,325.8L334.6,325.8z M373.2,316.9
	c4.3,0,7.5,1.3,10.4,3.4c0.5,0.3,1.1,0.2,1.4-0.3l4-6.9c0.3-0.5,0.1-1-0.3-1.3c-4.1-2.8-9.2-5.3-16-5.3c-6.8,0-13.1,1.8-17.5,6.4
	c-4.5,4.5-6.5,9.8-6.5,16.2c0,7.6,3.2,12.5,6.6,16c3.4,3.4,9.6,6.3,17.5,6.3c7.1,0,12.4-3,16-5.3c0.4-0.3,0.5-0.9,0.3-1.3l-3.9-6.8
	c-0.3-0.5-0.9-0.7-1.4-0.3c-2.6,1.8-6.3,3.4-10.4,3.4c-4.7,0-13.2-2.6-13.2-12.1C360.1,319.6,368.5,316.9,373.2,316.9L373.2,316.9z
	 M567.2,342c-3.8,0-7.5-0.9-10.1-3c-2.6-2.1-3.9-4.3-3.9-6.9h34.2c0.5,0,1-0.5,1-1c-0.2-10.2-3.5-14.9-6.7-18.1
	c-3.3-3.3-8.9-6.3-16.3-6.3s-13.1,2.7-16.9,6.5c-3.8,3.8-6.7,8.7-6.7,16.1c0,7.4,3,12.3,6.6,15.9c3.6,3.6,9.6,6.3,18.1,6.3
	c8,0,14.8-2.8,19.7-8.4c0.4-0.5,0.3-1.2-0.3-1.5l-6.8-4c-0.3-0.2-0.8-0.2-1.1,0.1C574.6,340.9,570.3,342,567.2,342z M565.4,315.9
	c5.5,0,10.5,3.3,11.3,9.2h-23C555.2,318.7,559.9,315.9,565.4,315.9L565.4,315.9z"/>
</svg>
